# xmcd
#
# Track frame offsets:
#   150
#   17661
#   42262
#   60298
#   79889
#   96852
#   110038
#   129568
#   147562
#   167304
#   183890
#   201234
#   219104
#   235546
#   255278
#   274388
#   288406
#
# Disc length: 4077 seconds
#
# Revision: 0
# Processed by: cddbd v1.5.2PL0 Copyright (c) Steve Scherf et al.
# Submitted via: uFREEDB ActiveX Control 1.5
#
DISCID=e80feb11
DTITLE=ENIO MEDEIROS - CASERIANDO
DYEAR=1900
DGENRE=Country
TTITLE0=PEDRO MAMEDE
TTITLE1=MOURA CRUZEIRA
TTITLE2=RODEIO DE MARCA GRANDE
TTITLE3=LAMPANA
TTITLE4=OS TRES BUGIOS
TTITLE5=LUANA
TTITLE6=CASERIANDO
TTITLE7=PESCADORES DE SONHOS
TTITLE8=BAILARINA TOSTADA
TTITLE9=TCHE EU SOU GAUCHO
TTITLE10=TRIBUTO AO PAYADOR MISSIONEIRO
TTITLE11=MILONGA DE GALPAO
TTITLE12=DOMADOR LOUCO
TTITLE13=ROMANCE VIDA E LIDA DE UM POSTEIRO
TTITLE14=LA NO PORTO DOS CAVALOS
TTITLE15=PAYANDO A URUGUAIANA
TTITLE16=NEGRO MEDEIROS
EXTD=
EXTT0=
EXTT1=
EXTT2=
EXTT3=
EXTT4=
EXTT5=
EXTT6=
EXTT7=
EXTT8=
EXTT9=
EXTT10=
EXTT11=
EXTT12=
EXTT13=
EXTT14=
EXTT15=
EXTT16=
PLAYORDER=
